<?xml version="1.0" standalone="no"?>
<!DOCTYPE svg PUBLIC "-//W3C//DTD SVG 20010904//EN"
 "http://www.w3.org/TR/2001/REC-SVG-20010904/DTD/svg10.dtd">
<svg version="1.0" xmlns="http://www.w3.org/2000/svg"
 width="1024.000000pt" height="1024.000000pt" viewBox="0 0 1024.000000 1024.000000"
 preserveAspectRatio="xMidYMid meet">

<g transform="translate(0.000000,1024.000000) scale(0.100000,-0.100000)"
fill="#000000" stroke="none">
<path d="M0 5120 l0 -5120 5120 0 5120 0 0 5120 0 5120 -5120 0 -5120 0 0
-5120z m5842 3553 c1 -16 2 -39 3 -53 l1 -25 239 -5 240 -5 2 -67 2 -68 -68 0
c-37 0 -143 3 -234 7 l-167 6 0 59 0 58 -725 0 -725 0 0 -60 0 -60 -250 0
-250 0 0 -56 c0 -90 -13 -99 -140 -99 l-105 0 -3 -62 -3 -62 -87 -3 -87 -3 0
-47 c-1 -26 -3 -49 -6 -52 -2 -3 -47 -6 -99 -7 -52 -1 -111 -4 -131 -6 l-37
-5 -7 -64 -7 -64 -98 0 -99 0 -3 -57 -3 -58 -60 -1 -60 -1 -2 -34 c-1 -19 -2
-44 -2 -55 -1 -19 -9 -23 -56 -29 l-55 -6 0 -65 0 -64 -60 0 -60 0 0 -75 0
-75 -70 0 -69 0 -3 -67 -3 -68 -66 -3 -66 -3 -7 -75 c-10 -106 -8 -104 -82
-104 -59 0 -64 2 -64 21 0 12 8 27 17 34 17 13 41 114 42 183 1 30 3 32 37 32
30 0 37 4 49 34 8 19 17 54 21 78 10 62 21 81 47 74 12 -3 39 -3 59 0 l37 6 3
62 3 61 73 3 72 3 0 68 0 68 79 7 80 7 3 52 3 52 78 3 77 3 0 54 0 55 65 0
c75 0 85 10 85 83 l0 45 85 7 85 7 0 59 0 59 115 0 115 0 0 70 0 70 181 0 182
0 -7 46 c-3 25 -3 57 0 70 l6 24 247 2 246 3 3 53 3 52 720 0 719 0 2 -27z
m916 -297 l3 -69 104 7 105 7 0 -66 0 -65 59 0 c32 0 79 -3 105 -6 l46 -7 0
-58 0 -59 59 0 c58 0 59 -1 65 -31 3 -17 6 -42 6 -54 0 -21 6 -23 80 -30 72
-6 81 -9 86 -30 3 -12 5 -29 4 -36 -7 -44 -3 -46 90 -53 l89 -7 3 -72 3 -72
58 -3 57 -3 0 -59 0 -58 50 -7 50 -7 0 -61 c1 -80 14 -97 82 -106 l53 -6 3
-83 c2 -49 7 -80 12 -77 6 4 10 -16 10 -49 l0 -56 53 -1 c101 -2 92 7 95 -96
l3 -93 37 0 c85 0 82 5 82 -151 l0 -139 45 0 45 0 0 -95 0 -94 58 -3 57 -3 3
-232 2 -233 -60 0 -60 0 -2 238 -3 237 -60 0 -60 0 0 -240 0 -240 58 -3 57 -3
0 -704 0 -705 -49 0 -48 0 -8 -190 -7 -190 -114 0 -114 0 0 -60 0 -60 -55 0
-55 0 0 -59 c0 -57 1 -60 28 -65 23 -4 52 -3 84 3 3 0 8 9 11 18 2 10 5 -47 6
-127 l2 -145 -68 0 -68 0 3 -94 3 -94 -56 6 -57 6 4 -60 3 -59 -42 0 c-23 0
-44 4 -47 9 -3 5 -15 7 -26 4 -13 -3 -20 0 -20 8 0 11 -2 11 -10 -1 -6 -10
-10 76 -10 253 l0 268 60 -2 c69 -2 80 -13 80 -76 0 -45 14 -63 50 -63 17 0
31 -9 43 -27 l18 -28 -4 28 c-2 15 0 27 5 27 5 0 8 33 6 73 l-3 72 -62 3 -62
3 -3 57 -3 57 -52 1 -53 1 0 -53 0 -53 -57 -3 -58 -3 4 -150 c4 -164 -7 -440
-18 -430 -3 4 -8 106 -11 228 l-5 222 -47 3 -48 3 0 54 0 54 -42 3 -43 3 -3
63 -3 62 -74 0 -75 0 0 185 0 185 45 0 45 0 0 -140 0 -140 55 0 55 0 0 -40 0
-40 134 0 135 0 3 38 3 37 58 3 57 3 -2 232 -3 232 -26 3 c-24 3 -27 9 -33 53
l-7 50 -47 -3 -47 -3 0 55 0 55 -255 0 -255 0 -3 -52 -3 -53 -45 0 -44 0 0
-50 0 -50 -55 0 -55 0 0 -280 0 -280 -45 0 -45 0 0 50 0 49 -57 3 -58 3 -3
128 -3 127 -64 0 -65 0 0 50 0 50 -65 0 -65 0 0 60 0 59 -67 3 -68 3 -3 53 -3
52 -110 0 -109 0 0 40 c0 52 7 55 158 59 l62 1 0 45 0 45 65 0 65 0 0 55 0 55
65 0 65 0 0 60 0 60 70 0 70 0 0 100 0 100 185 0 185 0 0 33 c0 17 3 49 6 70
l7 37 74 0 75 0 -4 73 -3 72 68 3 67 3 0 74 0 74 63 3 62 3 0 83 c0 45 -2 199
-3 342 l-2 260 -65 0 -64 0 -3 98 -3 97 -67 3 -67 3 -3 52 -3 52 -65 5 -65 5
-3 58 -3 57 -179 0 -180 0 0 -42 c0 -85 -3 -88 -85 -88 -57 0 -74 3 -79 16 -3
9 -6 74 -6 146 l0 130 -37 -3 c-72 -4 -73 -3 -73 46 0 42 -2 45 -27 45 -61 0
-72 9 -79 61 l-7 49 -48 0 -49 0 0 60 0 60 -65 0 -65 0 0 65 0 65 -55 0 c-41
0 -55 4 -55 15 0 10 -15 15 -57 17 l-58 3 -3 53 -3 52 -100 0 c-81 0 -99 3
-99 15 0 11 11 15 40 15 l40 0 0 75 0 74 -62 3 c-69 3 -68 3 -52 76 4 22 3 22
-111 22 -101 0 -116 -2 -122 -17 -11 -32 -46 -63 -70 -63 -23 0 -23 1 -23 120
l0 120 -129 0 -129 0 -11 -62 c-7 -43 -17 -68 -32 -79 -11 -8 -29 -34 -39 -57
-21 -46 -38 -52 -65 -22 -27 30 -43 24 -51 -17 -13 -76 -24 -83 -122 -83 l-88
0 -22 -45 -22 -45 64 0 c54 0 64 -3 69 -19 4 -17 11 -19 66 -14 l61 6 0 -62 0
-61 -70 0 -70 0 0 -74 0 -75 -42 -3 -43 -3 -5 -64 -5 -65 -122 3 -123 2 0 -65
0 -66 -143 0 -143 0 -13 -171 c-15 -188 -14 -189 43 -183 17 1 41 3 54 3 20 1
22 6 22 54 l0 52 320 0 320 0 0 -52 0 -53 65 0 65 0 0 -45 0 -45 70 0 70 0 0
-65 0 -65 60 0 60 0 0 65 0 64 73 3 72 3 3 43 3 43 62 -2 62 -3 3 57 3 57 273
0 273 0 9 -57 9 -58 45 -1 c25 -1 51 -2 58 -3 7 -1 12 -15 12 -36 l0 -35 60 0
60 0 0 -65 0 -65 44 0 c83 0 76 37 76 -422 l0 -410 -60 4 -60 3 0 -61 0 -61
-100 -7 -99 -8 -3 -56 -3 -57 -87 -3 -88 -3 0 -54 c0 -54 0 -55 30 -55 l30 0
0 -175 0 -175 -157 -2 c-87 -1 -132 -3 -100 -5 56 -4 57 -5 57 -33 0 -29 -1
-30 -46 -25 -25 2 -49 7 -54 10 -5 3 -12 -6 -16 -20 -6 -23 -10 -25 -70 -25
l-64 0 0 -61 0 -62 -60 6 -60 7 0 -38 c0 -64 -4 -65 -139 -60 -133 5 -126 8
-122 -62 2 -19 13 -53 25 -75 23 -39 38 -80 50 -137 l6 -28 155 0 154 0 3 -32
3 -33 168 -3 167 -2 0 -45 0 -45 64 0 c63 0 65 0 71 -30 5 -23 12 -30 31 -30
24 0 24 0 24 -115 0 -101 -2 -115 -17 -115 -9 0 -13 -3 -9 -7 3 -4 66 -9 139
-12 l132 -6 3 -37 c3 -36 5 -38 39 -38 20 0 50 -9 68 -20 31 -19 34 -25 37
-83 5 -89 2 -99 -36 -95 -26 3 -31 8 -34 33 -5 41 -12 46 -73 53 -52 7 -54 8
-57 40 l-3 32 -95 0 -95 0 1 -57 c2 -86 4 -83 -40 -79 l-40 3 0 -73 0 -74 -35
0 -34 0 -3 -77 -3 -78 -42 -3 c-43 -3 -43 -3 -43 -43 l0 -39 -50 0 -50 0 0
-55 0 -56 -42 2 c-79 3 -78 4 -78 -50 0 -48 0 -48 -37 -55 -21 -3 -53 -6 -71
-6 -33 0 -33 0 -30 -43 l3 -42 88 -3 87 -3 0 45 0 45 47 3 47 3 -3 52 -2 53
45 0 45 0 3 -43 3 -42 51 -6 c29 -4 57 -10 63 -13 7 -4 11 -40 11 -87 l0 -79
-64 0 c-68 0 -75 -6 -76 -67 0 -21 -5 -23 -59 -23 l-59 0 6 -45 5 -45 -531 0
c-524 0 -530 0 -525 20 3 11 2 31 -1 45 -6 23 -11 25 -56 25 -45 0 -50 2 -50
23 -1 63 -6 67 -95 67 l-83 0 -4 75 c-3 70 -2 75 17 75 12 0 45 9 75 19 46 16
56 24 58 46 3 26 4 26 74 23 l70 -2 -4 -71 -3 -70 43 3 c33 3 42 0 42 -12 0
-13 11 -16 55 -16 40 0 55 -4 55 -14 0 -7 6 -19 14 -25 8 -7 12 -21 9 -31 -5
-20 2 -20 301 -20 l307 0 -3 43 -3 42 -297 3 -298 2 0 45 0 45 -54 0 -55 0 -3
42 -3 42 -63 14 -63 15 3 41 3 41 -48 3 -49 3 4 47 c3 47 3 47 -32 52 l-35 5
-5 65 -5 65 -47 9 -48 9 0 209 0 208 -45 0 -45 0 0 89 c0 119 7 148 35 155 17
4 25 15 27 34 3 26 6 27 61 30 l57 3 0 44 0 45 160 0 160 0 0 30 0 30 160 0
c178 0 171 -3 145 70 -8 23 -15 58 -15 76 0 19 -4 34 -10 34 -12 0 -41 56 -50
95 -5 29 -9 30 -65 35 l-60 5 -3 36 c-3 34 -6 37 -40 43 -20 3 -52 6 -69 6
l-33 0 0 55 0 55 -65 0 c-58 0 -65 2 -65 20 0 16 -7 20 -32 21 -18 1 -42 2
-53 3 -11 1 -35 -7 -53 -16 -43 -23 -42 -23 -42 15 0 49 -9 56 -85 59 l-70 3
-3 178 -2 177 50 0 50 0 0 50 0 50 -115 0 -114 0 -3 58 -3 57 -52 3 c-47 3
-53 6 -54 25 0 12 -2 36 -3 52 -1 17 -3 45 -4 63 l-2 32 -60 0 -60 0 0 -270 0
-270 -91 0 -92 0 7 88 c3 48 9 167 12 264 l7 178 35 -5 c19 -2 55 0 79 6 l43
11 0 419 0 419 -38 0 c-47 0 -77 27 -67 60 6 19 13 21 56 18 28 -2 50 1 51 7
0 6 4 -10 7 -35 3 -25 9 -44 14 -42 4 1 34 2 67 2 l60 0 0 43 c0 24 -3 84 -6
134 l-7 90 -60 2 c-40 1 -63 -3 -69 -11 -6 -10 -8 -10 -8 0 0 15 -36 16 -46 1
-4 -8 -9 -8 -17 0 -17 17 -27 13 -27 -10 0 -26 26 -48 58 -49 12 0 22 -6 22
-15 0 -8 6 -12 13 -9 13 5 19 -23 11 -62 -3 -18 -12 -21 -65 -23 -65 -2 -103
-13 -115 -32 -5 -9 -1 -11 14 -7 12 4 25 2 28 -3 3 -5 -6 -9 -20 -9 -18 0 -26
-6 -29 -22 -2 -13 -5 11 -6 52 l-1 76 40 -4 40 -4 0 75 c0 71 1 76 23 79 20 3
23 10 27 68 l5 65 46 3 c49 3 59 14 59 70 0 20 5 22 50 22 l50 0 0 38 c0 78 5
82 80 82 l69 0 6 58 c10 86 5 82 95 82 l80 0 0 60 0 60 150 0 150 0 0 64 0 63
-137 2 c-75 0 -145 -1 -155 -5 -14 -4 -18 -16 -18 -60 l0 -54 -80 0 -80 0 0
-60 0 -60 -79 0 -79 0 2 -72 1 -72 -57 3 -58 2 0 -57 0 -56 -55 4 -55 5 0 -59
0 -58 -65 0 -65 0 0 -140 0 -140 -60 0 -59 0 -3 63 -3 62 -202 3 -203 2 0 -59
0 -60 -62 -3 -63 -3 0 -50 0 -50 -72 -3 -73 -3 0 -99 0 -100 -65 0 -65 0 0
-345 0 -345 60 0 60 0 0 -75 0 -75 75 0 75 0 0 -75 0 -74 63 -3 62 -3 3 -69 3
-68 203 4 204 4 6 -59 c3 -33 6 -77 6 -98 l0 -39 64 0 c74 0 76 -3 76 -87 l0
-55 75 7 75 7 0 -62 0 -62 68 3 67 4 3 -41 3 -42 60 -6 60 -7 -3 -37 -3 -37
-57 -3 -58 -3 0 -59 0 -59 -72 -3 -73 -3 -3 -47 -3 -48 -65 0 -65 0 6 -55 7
-55 -77 0 -78 0 5 -129 6 -129 -59 -6 -58 -7 6 -49 6 -50 -62 0 -61 0 0 -245
0 -245 55 0 55 0 0 -55 0 -55 59 0 58 0 7 -60 7 -60 59 0 60 0 0 -65 0 -65
-42 -2 c-24 0 -49 -1 -55 -1 -8 1 -13 -13 -13 -37 0 -60 -7 -70 -51 -70 l-38
0 -3 -107 -3 -108 -132 -3 -132 -3 -3 53 -3 53 -59 3 -59 3 6 50 6 49 -49 0
-50 0 0 55 0 55 -60 0 -60 0 0 310 0 309 -57 3 -58 3 -3 58 -3 57 -59 0 -60 0
0 -75 0 -75 45 0 45 0 -2 -191 c-3 -159 -6 -193 -18 -199 -8 -4 -26 -12 -39
-19 -18 -10 -21 -10 -16 0 6 8 0 10 -22 7 -38 -5 -50 9 -51 61 -1 24 -2 45 -4
47 -7 6 -51 12 -97 13 l-43 1 3 199 c2 110 7 203 12 207 4 4 45 10 92 12 l85
5 0 51 c0 29 -5 57 -12 64 -7 7 -42 12 -85 12 l-73 0 0 40 0 40 43 0 c23 0 72
3 110 7 62 5 67 8 67 29 0 21 5 24 39 24 26 0 41 5 45 16 8 20 8 458 0 478 -4
12 -20 16 -55 16 l-48 0 -3 53 -3 52 -145 3 c-190 4 -186 5 -182 -57 l4 -50
-39 -3 c-27 -2 -37 -7 -35 -17 2 -8 0 -32 -3 -53 -7 -37 -8 -38 -51 -38 l-44
0 -1 -112 c-1 -62 -3 -156 -5 -208 l-3 -95 -186 -3 -186 -2 3 190 c2 147 0
190 -9 190 -10 0 -13 149 -13 710 l0 710 -55 0 -55 0 0 235 0 235 60 0 60 0 2
-237 3 -238 67 -3 68 -3 0 246 0 245 -70 0 -70 0 0 75 c0 74 0 75 25 75 14 0
27 6 30 13 3 11 14 204 15 270 0 26 2 27 56 27 l56 0 -3 -232 -4 -233 68 -3
67 -3 0 244 0 243 -60 -4 -60 -4 0 91 0 91 70 0 71 0 -3 -87 -3 -88 78 -3 78
-3 -3 86 -3 85 78 0 77 0 0 80 0 79 73 3 72 3 0 75 0 75 68 3 67 3 0 79 c0 44
3 79 8 79 4 -1 53 -1 110 0 l102 1 0 70 0 70 100 0 100 0 0 93 0 92 150 -3
150 -3 0 80 0 81 85 0 85 0 0 60 0 60 105 0 105 0 0 50 0 50 113 0 c139 0 153
4 161 41 l6 29 215 0 215 0 0 55 0 55 625 0 625 0 0 -55 0 -55 95 0 95 0 0
-35 0 -35 145 0 145 0 0 -45 0 -45 175 0 174 0 3 -62 3 -63 67 -3 67 -3 3 -77
3 -77 177 1 177 1 3 -96 3 -96 100 0 100 0 3 -73 3 -74 69 7 70 7 0 -86 0 -86
75 0 c72 0 75 -1 81 -26 4 -14 4 -45 1 -70 -5 -49 -9 -46 78 -48 l40 -1 3 -82
3 -82 51 -3 51 -3 1 -80 1 -80 67 -3 67 -3 3 -82 3 -82 36 -3 c34 -3 37 -6 43
-40 3 -20 6 -90 6 -154 l0 -118 55 0 55 0 0 138 c0 167 -3 180 -44 190 -31 8
-31 9 -34 80 l-3 72 -54 0 -55 0 0 85 0 85 -29 0 c-16 0 -42 3 -59 6 l-31 6
-3 82 -3 81 -47 9 -48 9 0 63 0 62 -80 7 -79 7 -3 77 -3 76 -57 3 -57 3 -3 62
-3 62 -72 3 -73 3 0 59 c0 56 -1 60 -24 60 -13 0 -38 3 -55 6 -30 6 -31 9 -31
55 l0 49 -101 0 -100 0 2 68 2 67 -136 -1 -136 -1 -3 56 -3 56 -52 3 -52 3 -3
62 -3 62 -187 3 -188 2 0 65 c0 77 -22 70 235 70 l190 0 3 -69z m-1603 -420
c-16 -23 -15 -24 5 -19 21 6 22 5 6 -24 -27 -53 -66 -93 -137 -139 -70 -45
-109 -64 -135 -64 -27 0 -14 15 47 54 33 21 97 78 142 127 45 49 83 88 85 89
1 0 -5 -11 -13 -24z m-1557 -1192 c22 -6 23 -8 20 -148 l-3 -141 -170 -2 c-93
-1 -177 -2 -186 -3 -20 0 -31 -62 -18 -97 7 -19 15 -21 58 -20 l50 2 1 -234
c0 -129 4 -239 7 -244 4 -6 6 -30 4 -54 l-2 -43 124 0 124 0 7 -92 c3 -50 6
-110 6 -133 l0 -42 -200 -7 c-110 -4 -204 -5 -210 -1 -5 3 -10 37 -10 75 l0
69 -57 3 -58 3 -3 78 -3 77 -69 0 -70 0 0 319 c0 360 -8 331 86 331 l54 0 0
80 0 80 65 0 65 0 0 69 0 70 33 4 c54 6 330 7 355 1z m3500 -71 l3 -73 63 0
c75 0 76 -2 76 -96 l0 -64 65 0 65 0 -2 -322 -3 -323 -57 -3 c-58 -3 -58 -3
-58 -35 0 -18 -3 -56 -7 -86 l-6 -53 -69 4 -68 5 0 -68 0 -69 -185 0 -185 0 0
135 0 135 130 0 130 0 1 58 c0 31 0 156 -1 278 -1 245 -1 246 63 241 l37 -3 0
57 c0 71 6 69 -207 69 l-163 0 0 139 c0 102 3 141 13 144 6 3 91 5 187 4 l175
-2 3 -72z m-5368 -1448 l0 -705 -60 0 -60 0 0 705 0 705 60 0 60 0 0 -705z
m6910 0 l0 -705 -60 0 -60 0 0 705 0 705 60 0 60 0 0 -705z m-6065 -577 c24
-4 39 -24 29 -41 -5 -8 -2 -7 9 2 14 11 12 3 -7 -35 -26 -52 -97 -134 -115
-134 -7 0 -16 -11 -21 -25 -8 -22 -16 -25 -55 -25 l-45 0 0 79 0 80 33 3 c31
3 32 4 35 57 l3 54 57 -6 c31 -4 66 -8 77 -9z m4605 -18 c0 -18 -6 -33 -15
-36 -8 -4 -12 -10 -9 -15 3 -5 0 -9 -5 -9 -6 0 -11 20 -11 45 0 38 3 45 20 45
16 0 20 -7 20 -30z m-2890 -79 c0 -42 -13 -51 -78 -51 l-32 0 6 -55 7 -55
-137 0 -136 0 0 55 0 54 68 3 67 3 3 43 3 42 115 0 114 0 0 -39z m2846 -26 c3
-13 4 -34 2 -46 -3 -21 -9 -24 -50 -27 l-48 -3 0 49 c0 27 2 51 4 53 3 3 23 3
46 1 32 -3 41 -9 46 -27z m1374 -137 c0 -68 3 -153 7 -190 l6 -68 59 0 59 0
-3 -57 -3 -58 -52 -3 c-29 -2 -53 -7 -53 -13 0 -5 8 -9 19 -9 13 0 19 -7 19
-26 0 -15 6 -30 13 -35 12 -8 12 -11 -1 -20 -12 -8 -9 -9 11 -5 21 5 26 2 25
-12 -1 -11 6 -17 19 -17 23 0 23 -7 10 -142 -9 -94 -19 -108 -70 -100 l-35 6
0 -84 0 -84 -245 -3 -245 -3 0 32 c0 31 1 32 48 35 l47 3 5 45 c5 45 5 45 46
48 32 2 44 8 52 27 6 13 35 41 64 63 29 22 62 49 72 61 11 11 25 21 33 21 8 0
11 5 7 12 -4 7 -3 8 4 4 7 -4 17 -4 23 0 16 9 -10 24 -43 24 l-28 0 0 90 0 91
-57 -3 -57 -3 0 -62 1 -63 -77 0 c-88 0 -90 1 -90 81 l0 49 85 0 85 0 0 55 0
55 60 0 60 0 0 -50 0 -50 60 0 60 0 0 50 0 50 -55 0 -55 0 0 190 0 190 55 0
55 0 0 -122z m-950 7 l0 -85 -50 0 c-45 0 -50 2 -50 23 -1 61 -7 67 -81 67
l-69 0 0 40 0 40 125 0 125 0 0 -85z m-3640 -59 l0 -45 -44 -6 c-70 -11 -86
-1 -86 51 l0 44 65 0 65 0 0 -44z m-100 -88 c0 -7 -4 -19 -9 -27 -7 -11 -13
-10 -35 4 -20 14 -24 20 -14 26 20 13 58 11 58 -3z m-1950 -168 l0 -50 125 0
c105 0 127 -3 132 -16 5 -13 7 -13 14 -2 7 10 9 10 9 1 0 -9 14 -13 43 -12
l42 2 -40 7 -40 7 42 2 c23 0 45 -3 48 -9 3 -5 11 -10 18 -10 6 0 3 6 -6 13
-14 10 -16 21 -11 60 7 47 7 47 45 47 l39 0 -3 -95 c-1 -52 -4 -90 -6 -83 -2
6 -11 1 -21 -12 -15 -19 -23 -22 -54 -16 -25 5 -34 11 -29 19 4 7 0 7 -10 -2
-9 -7 -17 -10 -17 -5 0 5 -4 2 -10 -6 -6 -9 -5 -17 1 -21 6 -3 2 -9 -9 -11
-16 -4 -19 -2 -15 10 4 10 2 13 -5 8 -6 -3 -12 3 -15 16 -4 20 -4 19 -6 -4
l-1 -28 -127 0 c-92 0 -136 4 -156 15 -15 8 -25 10 -22 5 3 -6 0 -7 -8 -4 -18
7 -27 60 -13 74 7 7 6 10 -2 10 -7 0 -12 5 -12 11 0 6 7 9 15 5 8 -3 15 -1 15
4 0 5 -15 10 -32 12 -32 3 -33 4 -36 56 l-3 52 60 0 61 0 0 -50z m654 -66 c12
-5 16 -20 16 -60 l0 -54 -32 0 c-68 0 -78 8 -78 59 0 26 3 51 7 54 8 9 66 9
87 1z m4504 -64 c2 -36 8 -68 15 -72 7 -5 32 -7 57 -6 l45 2 3 -57 3 -57 49 0
50 0 0 -354 0 -355 -42 -3 -43 -3 -3 -52 -3 -53 -45 0 -44 0 0 -50 0 -51 -117
3 -118 3 -3 108 -3 107 -49 0 -50 0 0 55 0 54 -62 3 -63 3 0 60 0 60 68 3 67
3 0 59 0 60 65 0 65 0 0 50 0 50 55 0 55 0 0 189 c0 104 -3 196 -6 205 -3 9
-17 16 -30 16 -21 0 -24 5 -24 38 0 21 3 42 7 46 4 4 28 6 53 4 l45 -3 3 -65z
m-3200 22 c4 -42 -12 -62 -52 -62 -41 0 -76 25 -76 55 0 32 25 45 80 42 43 -2
45 -3 48 -35z m384 -57 c116 -24 108 -18 108 -91 l0 -64 -90 0 -90 0 0 -54 0
-54 35 9 c20 6 57 9 83 7 38 -2 49 -8 59 -28 17 -33 17 -144 0 -158 -7 -6 -67
-14 -132 -18 -66 -3 -124 -10 -130 -16 -11 -10 115 -4 235 13 104 14 107 13
120 -27 16 -48 5 -100 -26 -120 -19 -13 -60 -18 -188 -22 l-163 -5 -7 36 c-6
34 -9 36 -49 39 l-42 3 0 90 c0 72 3 90 15 92 91 12 91 12 88 51 -3 36 -4 37
-45 40 l-43 3 0 68 c0 85 26 130 84 146 29 8 41 19 52 43 15 37 23 38 126 17z
m-2097 -45 c-17 -6 -14 -8 15 -12 19 -2 -2 -4 -48 -5 -45 -1 -80 2 -78 6 3 4
20 6 38 4 27 -3 29 -1 13 6 -15 7 -9 10 30 10 35 0 44 -3 30 -9z m-305 -20 c0
-5 8 -10 19 -10 10 0 25 -7 32 -17 27 -32 142 -113 152 -106 5 3 7 1 4 -4 -8
-13 59 -67 72 -58 5 3 12 -4 16 -15 6 -17 15 -20 75 -20 l69 0 3 -47 3 -48 48
-3 c44 -3 47 -5 47 -30 l0 -27 -77 2 c-43 1 -166 2 -274 3 l-196 0 -6 121 c-4
66 -9 125 -13 130 -3 5 -27 9 -54 9 l-48 0 -4 65 -3 65 68 0 c38 0 67 -4 67
-10z m-123 -177 c-3 -10 -5 -4 -5 12 0 17 2 24 5 18 2 -7 2 -21 0 -30z m393
-3 c0 -5 -2 -10 -4 -10 -3 0 -8 5 -11 10 -3 6 -1 10 4 10 6 0 11 -4 11 -10z
m4377 -56 c14 -2 24 -14 28 -34 6 -28 9 -30 56 -30 l49 0 0 -95 0 -95 -54 0
-55 0 -3 -42 -3 -43 -185 3 c-113 3 -195 8 -210 16 -29 13 -49 62 -49 125 l-1
43 43 -6 c23 -4 110 -9 192 -11 l150 -3 -134 9 c-163 10 -173 16 -169 98 4 76
14 80 186 74 75 -2 147 -6 159 -9z m-1971 -351 c5 -35 3 -54 -10 -78 -29 -54
-47 -59 -213 -63 l-153 -4 0 74 0 75 118 6 c64 3 137 13 162 21 79 25 88 22
96 -31z m1527 12 c28 -11 79 -15 217 -15 l180 0 0 -76 0 -77 -187 5 c-244 6
-273 20 -273 127 0 56 7 60 63 36z m-2167 -135 c21 0 24 -4 24 -40 0 -29 4
-40 15 -40 12 0 15 -15 15 -77 0 -43 3 -95 6 -115 l7 -38 -67 0 -66 0 0 -150
c0 -99 -4 -150 -11 -150 -5 0 -7 -5 -4 -10 8 -13 -4 -70 -14 -70 -5 0 -11 29
-13 64 -7 88 -15 97 -49 55 l-28 -34 -1 253 0 252 38 0 c71 0 82 8 82 54 0 47
7 59 28 51 7 -3 25 -5 38 -5z m3784 -102 c0 -136 -1 -138 -66 -138 -29 0 -55
4 -59 10 -3 5 -3 57 1 115 l7 105 58 0 59 0 0 -92z m-4332 -250 l-3 -43 -55
-7 c-30 -3 -57 -5 -59 -3 -2 2 -6 24 -8 50 l-6 45 67 0 67 0 -3 -42z m-413
-18 c89 -7 89 -7 25 -9 -43 -2 -58 -5 -45 -10 11 -4 33 -6 49 -4 52 6 61 -2
60 -54 -2 -133 -5 -177 -12 -165 -8 12 -72 14 -72 2 0 -8 -5 -9 -97 -16 -72
-6 -73 -7 -73 -35 0 -24 -5 -29 -34 -35 -19 -3 -51 -6 -71 -7 l-37 -1 22 -18
c14 -11 20 -24 16 -34 -5 -12 -2 -15 11 -10 13 5 15 4 7 -4 -6 -6 -18 -8 -28
-4 -14 5 -14 9 -4 22 11 13 9 14 -12 8 -18 -5 -21 -4 -11 2 12 9 12 13 -3 27
-14 15 -30 17 -104 12 -48 -4 -123 -7 -167 -7 l-81 0 -11 -31 c-10 -27 -10
-29 3 -18 8 7 14 8 13 3 -4 -22 2 -34 19 -35 16 -1 16 -2 0 -6 -10 -2 -18 -9
-18 -14 0 -6 3 -8 8 -6 4 3 16 1 27 -4 17 -6 17 -8 3 -8 -10 -1 -18 -6 -18
-12 0 -5 -4 -7 -10 -4 -5 3 -10 1 -10 -5 0 -6 -11 -8 -27 -5 -26 5 -26 5 -5
-4 12 -6 21 -18 21 -28 -1 -17 -2 -17 -6 0 -4 15 -21 17 -179 17 -114 0 -173
3 -169 10 6 9 -14 14 -42 11 -9 -1 -13 14 -13 46 0 26 -3 77 -6 114 l-7 65
164 0 164 -1 3 74 3 74 54 -7 c78 -9 85 -4 85 63 0 32 3 60 6 64 8 7 485 -2
609 -13z m5177 -42 l3 -63 53 -3 52 -3 0 -68 c0 -54 4 -70 16 -75 9 -3 82 -6
164 -6 l148 0 -1 -107 c0 -73 -4 -112 -13 -120 -9 -10 -58 -13 -191 -11 -109
0 -161 4 -133 8 l45 7 -55 2 c-70 2 -90 13 -73 40 7 11 10 27 7 36 -4 8 -1 15
7 15 7 0 9 3 6 6 -3 4 -2 14 3 24 8 15 4 18 -28 24 -20 3 -153 6 -294 6 -141
0 -259 4 -262 8 -2 4 -6 80 -7 167 l-2 160 249 5 c137 3 261 7 276 8 26 2 27
1 30 -60z m-4468 -232 c-7 -19 39 -66 64 -66 11 0 24 -5 28 -11 3 -6 14 -9 24
-6 13 3 17 -2 16 -21 -1 -16 -7 -26 -19 -28 -40 -6 -47 -13 -47 -52 0 -22 -3
-53 -6 -69 -6 -30 -6 -30 -122 -47 -65 -9 -134 -19 -154 -22 l-38 -7 0 172 0
171 130 0 c106 0 128 -2 124 -14z m426 -6 c0 -5 -4 -10 -10 -10 -5 0 -10 5
-10 10 0 6 5 10 10 10 6 0 10 -4 10 -10z m2440 -5 c0 -20 -32 -35 -73 -35 -26
0 -36 5 -40 20 -6 23 5 28 66 29 35 1 47 -3 47 -14z m-2422 -55 l22 -18 -50
-42 c-28 -24 -48 -45 -46 -48 3 -3 -1 -10 -9 -16 -8 -6 -25 -45 -38 -86 -23
-74 -24 -75 -63 -82 -51 -9 -92 -1 -104 22 -6 10 -10 53 -10 94 l0 76 52 40
c54 43 115 78 158 90 26 7 49 -1 88 -30z m216 19 c15 -12 26 -30 26 -45 0 -24
1 -24 22 -10 17 12 49 16 135 16 l113 0 0 -75 0 -74 -56 -3 -56 -3 -17 -45
c-10 -27 -26 -50 -41 -57 -30 -15 -126 -17 -135 -3 -14 22 -22 165 -11 179 7
10 2 9 -16 -3 -25 -17 -33 -36 -53 -143 -7 -36 -13 -40 -94 -49 -58 -6 -61 -5
-70 18 -12 31 -18 169 -8 185 4 7 44 39 88 72 89 68 127 77 173 40z m86 -2 c0
-17 2 -18 17 -6 9 8 14 9 10 2 -4 -6 -1 -13 5 -15 7 -3 -3 -5 -22 -5 -30 0
-36 4 -38 22 -1 13 4 22 13 22 8 0 15 -9 15 -20z m1981 -12 c20 -13 40 -21 44
-17 3 4 5 0 3 -8 -2 -8 5 -14 17 -15 11 0 19 -6 18 -12 -2 -7 0 -12 5 -12 19
3 33 -2 28 -10 -3 -5 1 -15 10 -22 13 -11 15 -26 9 -82 -11 -115 -13 -117 -95
-117 -79 0 -74 -5 -88 103 -6 50 -11 61 -37 77 l-30 19 3 -62 c2 -33 -1 -78
-7 -99 l-12 -38 -58 0 c-67 0 -85 14 -103 76 -13 48 -21 54 -80 54 l-46 0 -4
70 -3 70 65 2 c98 3 103 3 133 -5 22 -6 27 -5 21 5 -10 17 28 -12 39 -29 4 -7
12 -13 16 -13 5 0 9 6 8 13 -1 34 6 46 36 61 44 22 66 20 108 -9z m218 -6 c32
-16 75 -44 96 -61 l38 -32 -6 -85 c-8 -118 -9 -121 -66 -121 -70 0 -81 12 -88
100 l-6 75 -60 60 -60 59 39 18 c50 23 47 23 113 -13z m-2866 14 c-7 -2 -19
-2 -25 0 -7 3 -2 5 12 5 14 0 19 -2 13 -5z m-1095 -88 c-3 -3 -9 2 -12 12 -6
14 -5 15 5 6 7 -7 10 -15 7 -18z m3887 -15 c10 -11 16 -20 13 -20 -3 0 -13 9
-23 20 -10 11 -16 20 -13 20 3 0 13 -9 23 -20z m-548 -166 l72 -7 6 -38 c10
-57 64 -99 128 -99 26 0 46 -4 43 -9 -3 -5 31 -11 77 -15 136 -10 190 -16 195
-21 3 -2 14 0 25 6 14 8 18 8 13 0 -10 -15 7 -14 22 1 9 9 12 9 12 -1 0 -11 3
-11 15 -1 12 10 15 10 15 -1 0 -10 3 -10 12 -1 8 8 17 8 31 1 14 -8 18 -8 13
0 -9 14 9 14 37 0 12 -7 19 -8 15 -4 -4 4 1 16 12 25 24 20 86 17 111 -6 22
-20 40 -15 62 19 27 39 40 38 417 -43 133 -28 133 -28 127 -53 -9 -43 -176
-589 -181 -594 -3 -3 -65 9 -138 26 -263 61 -582 118 -923 165 -530 72 -1118
85 -1705 36 -168 -14 -647 -75 -790 -100 -126 -23 -580 -119 -591 -125 -6 -4
-172 606 -165 612 10 11 536 103 713 126 l102 13 30 -28 c16 -15 37 -28 45
-28 8 0 22 -8 32 -17 10 -11 29 -16 46 -14 16 1 28 -2 28 -9 0 -6 5 -8 13 -4
7 5 7 1 -3 -12 -8 -10 -10 -16 -6 -12 5 4 16 2 24 -5 10 -8 13 -8 9 -1 -4 7 0
15 9 18 8 3 12 2 9 -4 -3 -6 -1 -10 4 -10 6 0 11 4 11 9 0 42 219 81 271 48
21 -13 30 -13 74 -1 68 18 82 17 133 -7 34 -17 46 -19 52 -9 6 10 9 9 13 -1 3
-8 6 -2 6 12 1 15 15 53 31 84 17 31 30 63 30 71 0 11 30 14 143 17 197 6
1126 -2 1214 -9z m-3043 -656 c19 -62 45 -149 56 -193 22 -79 46 -117 61 -94
5 9 19 6 50 -9 24 -12 57 -26 72 -31 16 -6 26 -15 23 -20 -3 -5 -59 -21 -123
-36 -170 -39 -345 -86 -364 -96 -14 -7 -21 5 -44 78 -40 129 -42 149 -15 158
18 6 20 9 9 16 -10 6 -8 9 9 9 23 0 44 14 53 35 2 6 10 9 17 9 6 -1 12 2 12 7
0 14 -48 11 -53 -3 -3 -8 -6 -6 -6 4 -1 13 -12 18 -53 20 l-53 3 -27 80 c-14
44 -27 84 -27 89 -1 5 18 5 42 2 23 -4 53 -9 67 -11 14 -2 32 -5 40 -7 8 -3
12 -3 8 -1 -5 3 -8 14 -8 25 0 14 5 18 15 15 8 -4 17 -2 20 3 4 6 24 10 45 10
45 0 66 19 23 21 -21 1 -17 3 16 10 24 5 46 11 49 14 3 3 16 5 28 5 21 0 27
-12 58 -112z m4562 94 c12 -8 15 -82 4 -82 -12 0 -20 -28 -14 -45 4 -8 10 -12
15 -9 5 3 9 3 9 0 0 -19 -22 -12 -34 11 -8 15 -15 21 -16 14 0 -11 -3 -12 -11
-4 -8 8 -6 26 7 67 18 57 21 61 40 48z m-4789 -28 c-3 -3 -12 -4 -19 -1 -8 3
-5 6 6 6 11 1 17 -2 13 -5z m5133 -35 c0 -5 -12 -50 -27 -100 l-27 -89 -37 0
c-66 0 -76 -46 -20 -88 l29 -21 -36 -111 c-33 -98 -39 -111 -57 -106 -11 2
-76 20 -145 39 -69 19 -138 37 -153 41 -15 4 -26 10 -23 14 2 4 -12 6 -32 4
-29 -3 -34 -1 -22 8 12 9 7 10 -20 5 -31 -6 -33 -5 -17 7 16 12 16 13 -7 13
-13 0 -22 -3 -19 -7 2 -5 -3 -8 -11 -8 -23 0 -19 17 6 31 22 12 22 12 3 20
-18 7 -18 8 -2 8 10 1 27 -3 37 -9 13 -7 19 -6 23 5 4 8 -1 16 -11 18 -9 2 -2
2 16 0 18 -2 41 -7 49 -10 11 -4 14 -2 9 5 -4 7 -3 12 2 12 6 0 13 12 16 28 4
15 16 60 28 100 17 58 24 70 34 61 16 -13 19 2 4 17 -7 7 -7 18 0 35 8 20 10
21 9 4 -3 -43 0 -46 22 -34 14 7 24 8 28 1 4 -6 27 1 59 18 33 17 48 30 40 34
-7 3 -1 4 15 1 20 -4 27 -1 27 11 0 10 5 14 15 10 20 -7 46 4 38 17 -4 6 0 8
9 4 9 -3 35 1 59 8 54 17 89 18 89 4z m-293 -45 c-3 -3 -12 -4 -19 -1 -8 3 -5
6 6 6 11 1 17 -2 13 -5z m-77 -28 c0 -3 -4 -8 -10 -11 -5 -3 -10 -1 -10 4 0 6
5 11 10 11 6 0 10 -2 10 -4z m-4785 -143 c26 -15 3 -24 -34 -13 -22 6 -31 5
-31 -3 0 -15 -20 14 -20 29 0 13 53 4 85 -13z"/>
<path d="M3925 6750 c-3 -5 -1 -10 4 -10 6 0 11 5 11 10 0 6 -2 10 -4 10 -3 0
-8 -4 -11 -10z"/>
<path d="M4390 6440 l0 -30 144 0 c137 0 144 1 149 21 3 11 0 22 -6 24 -7 2
-74 6 -149 9 l-138 7 0 -31z"/>
<path d="M5660 6437 l0 -28 148 3 c144 3 147 3 150 26 2 12 0 22 -5 22 -4 0
-72 2 -151 3 l-142 2 0 -28z"/>
<path d="M4330 6299 c0 -51 -8 -59 -59 -59 l-28 0 -6 -96 c-4 -53 -4 -143 0
-200 l6 -103 31 -3 c28 -3 31 -7 36 -43 5 -39 6 -40 50 -43 49 -4 60 -13 60
-53 0 -25 4 -27 61 -33 34 -3 102 -6 150 -6 82 0 89 2 89 20 0 17 7 20 39 20
37 0 40 2 43 33 2 26 9 34 36 42 l32 9 0 228 0 228 -45 0 -45 0 0 50 0 50
-182 2 c-101 1 -202 2 -225 3 l-43 2 0 -48z m248 -45 c22 -6 23 -10 20 -88
l-3 -81 -136 -3 c-135 -3 -137 -2 -143 20 -8 31 -7 81 2 94 4 6 25 23 47 37
34 23 50 27 115 27 41 0 85 -3 98 -6z m237 -364 c8 -49 2 -60 -35 -60 -51 0
-60 9 -60 56 l0 44 44 0 c44 0 44 0 51 -40z m-270 -121 c5 -6 4 -9 -4 -9 -7 0
-9 -4 -6 -10 4 -6 -10 -10 -34 -10 -39 0 -41 2 -41 29 0 29 0 29 38 19 20 -5
41 -14 47 -19z m35 7 c0 -3 -4 -8 -10 -11 -5 -3 -10 -1 -10 4 0 6 5 11 10 11
6 0 10 -2 10 -4z"/>
<path d="M5617 6295 l6 -55 -62 0 -61 0 0 -199 c0 -252 1 -259 49 -263 33 -3
36 -6 41 -38 5 -32 8 -35 43 -38 29 -3 37 -7 35 -20 -3 -15 12 -17 157 -17
l160 0 3 43 3 42 45 0 44 0 0 46 c0 37 4 47 20 51 19 5 20 14 20 182 0 215 -2
221 -46 221 -33 0 -34 1 -34 44 l0 43 -92 7 c-50 3 -146 6 -214 6 l-123 0 6
-55z m251 -127 l3 -88 -141 0 -140 0 0 53 c1 96 49 129 185 125 l90 -3 3 -87z
m177 -278 l0 -45 -42 -3 -43 -3 0 51 0 51 43 -3 42 -3 0 -45z m-399 15 c3 -14
3 -36 0 -50 -5 -21 -12 -25 -41 -25 -35 0 -35 1 -35 43 0 51 4 57 41 57 22 0
30 -6 35 -25z"/>
<path d="M4998 5693 c-41 -10 -29 -83 13 -83 10 0 32 -13 49 -30 17 -16 34
-30 38 -30 29 0 42 62 22 101 -20 36 -74 55 -122 42z"/>
<path d="M5272 5693 c-29 -6 -54 -55 -50 -101 3 -31 7 -37 28 -40 18 -2 34 6
55 28 16 16 36 30 45 30 35 0 54 46 28 68 -16 13 -75 21 -106 15z"/>
<path d="M4570 5170 l0 -39 58 -3 57 -3 3 -37 3 -38 57 0 c96 0 130 -9 136
-36 6 -22 11 -24 68 -24 50 0 66 -4 85 -22 l23 -22 -5 30 c-3 16 -2 34 2 39 5
7 51 9 126 7 114 -4 117 -5 117 -27 0 -13 -7 -25 -15 -29 -24 -9 -18 -36 9
-36 17 0 27 9 36 29 16 39 31 43 102 31 67 -12 78 -9 78 26 0 22 3 24 53 24
60 0 77 12 77 52 l0 28 -475 0 -475 0 0 45 0 45 -60 0 -60 0 0 -40z"/>
<path d="M5650 5170 l0 -40 60 0 60 0 0 40 0 40 -60 0 -60 0 0 -40z"/>
<path d="M4513 5023 c9 -2 25 -2 35 0 9 3 1 5 -18 5 -19 0 -27 -2 -17 -5z"/>
<path d="M4605 5020 c27 -12 35 -12 35 0 0 6 -12 10 -27 9 -25 0 -26 -1 -8 -9z"/>
<path d="M5225 4234 c-3 -33 -15 -78 -25 -102 -11 -23 -20 -47 -20 -52 0 -6
24 -10 53 -11 28 0 61 -4 72 -9 12 -5 -40 -9 -138 -9 -103 -1 -156 2 -152 9 3
6 24 10 45 10 57 0 70 8 70 44 1 17 7 42 15 56 8 14 14 44 15 68 l0 42 -149 0
c-140 0 -149 -1 -154 -20 -5 -19 -14 -20 -171 -20 -157 0 -166 -1 -166 -19 0
-44 -10 -51 -71 -51 -65 0 -65 0 -53 -72 7 -38 7 -38 54 -38 l48 0 -5 -41 -6
-41 49 4 49 3 5 -35 5 -35 65 -3 c36 -2 69 -7 73 -11 4 -4 25 -5 45 -2 59 11
66 8 72 -24 l5 -30 365 0 365 0 3 43 3 42 106 0 c96 0 105 2 110 20 5 19 13
22 58 24 16 1 21 9 23 44 l3 42 50 0 49 0 0 55 0 55 -60 0 c-59 0 -61 1 -66
30 -8 38 -50 44 -57 8 -3 -17 -5 -14 -6 10 l-1 32 -140 0 c-118 0 -140 2 -140
15 0 12 -19 15 -114 15 -62 0 -127 3 -144 6 l-30 6 -7 -58z m-442 -59 c4 -8 2
-17 -3 -20 -6 -4 -10 3 -10 14 0 25 6 27 13 6z"/>
<path d="M5518 2923 c7 -3 16 -2 19 1 4 3 -2 6 -13 5 -11 0 -14 -3 -6 -6z"/>
<path d="M3240 5800 c0 -11 4 -20 9 -20 5 0 7 9 4 20 -3 11 -7 20 -9 20 -2 0
-4 -9 -4 -20z"/>
<path d="M8390 3899 c0 -3 7 -12 15 -19 12 -10 19 -10 27 -2 17 17 33 15 19
-2 -15 -18 13 -30 37 -16 16 9 15 9 -1 10 -10 0 -15 5 -12 10 4 6 12 7 18 4 8
-5 7 -2 -1 7 -13 14 -102 21 -102 8z m40 -9 c0 -5 -4 -10 -10 -10 -5 0 -10 5
-10 10 0 6 5 10 10 10 6 0 10 -4 10 -10z"/>
<path d="M2193 2430 c-1 -11 2 -18 8 -15 11 7 12 35 1 35 -4 0 -8 -9 -9 -20z"/>
<path d="M8388 2303 c7 -3 16 -2 19 1 4 3 -2 6 -13 5 -11 0 -14 -3 -6 -6z"/>
<path d="M3690 2410 c-12 -7 -10 -9 7 -7 12 0 19 5 17 9 -6 10 -6 10 -24 -2z"/>
<path d="M6675 2030 c-3 -5 -1 -10 4 -10 6 0 11 5 11 10 0 6 -2 10 -4 10 -3 0
-8 -4 -11 -10z"/>
<path d="M2780 1630 c-23 -8 -22 -8 8 -7 19 1 36 5 38 9 6 10 -13 9 -46 -2z"/>
<path d="M3000 1242 c0 -6 9 -12 20 -15 11 -3 20 -3 20 -1 0 2 -9 8 -20 14
-11 6 -20 7 -20 2z"/>
<path d="M7417 1611 c-3 -13 -1 -18 9 -14 7 2 10 11 7 19 -7 19 -10 18 -16 -5z"/>
<path d="M7411 1571 c-7 -5 -12 -13 -10 -18 2 -6 13 -2 23 8 20 19 12 26 -13
10z"/>
<path d="M7410 1451 c0 -7 -4 -9 -10 -6 -5 3 -10 1 -10 -4 0 -6 4 -11 9 -11
13 0 25 20 17 27 -3 4 -6 1 -6 -6z"/>
</g>
</svg>
